<svg version="1.1" viewBox="-75 -75 2230 2230" xmlns="http://www.w3.org/2000/svg">
 <style type="text/css">.st0{fill:#FFFFFF;}
        .st1{fill:#217346;}
        .st2{fill-rule:evenodd;clip-rule:evenodd;fill:#217346;}</style>
 <rect class="st0" x="1040" y="297.1" width="941" height="1436.2"/>
 <path class="st1" d="m1981 297.1v1436.2h-941v-1436.2h941m0-99h-941c-54.7 0-99 44.3-99 99v1436.2c0 54.7 44.3 99 99 99h941c54.7 0 99-44.3 99-99v-1436.2c0-54.7-44.3-99-99-99z"/>
 <rect class="st1" x="1485.7" y="445.7" width="346.7" height="148.6"/>
 <rect class="st1" x="1485.7" y="693.3" width="346.7" height="148.6"/>
 <rect class="st1" x="1485.7" y="941" width="346.7" height="148.6"/>
 <rect class="st1" x="1485.7" y="1188.6" width="346.7" height="148.6"/>
 <rect class="st1" x="1485.7" y="1436.2" width="346.7" height="148.6"/>
 <rect class="st1" x="1040" y="445.7" width="346.7" height="148.6"/>
 <rect class="st1" x="1040" y="693.3" width="346.7" height="148.6"/>
 <rect class="st1" x="1040" y="941" width="346.7" height="148.6"/>
 <rect class="st1" x="1040" y="1188.6" width="346.7" height="148.6"/>
 <rect class="st1" x="1040" y="1436.2" width="346.7" height="148.6"/>
 <path class="st2" d="M1238.1,0L0,216.9v1646.2L1238.1,2080V0z"/>
 <path class="st0" d="m884.5 594.3-172.8 10.4-105.5 247.6-6.9 22.3-5 16.8-4.5 16.3-3.5 13.4c0-6.6-1.5-12.9-4.5-18.8l-4.5-17.3-5-16.3-5.4-14.9-90.6-235.2-166.8 10.4 177.8 385.3-196.6 385.3 162.9 9.9 109.4-252.6 5-17.3 4-15.4 3.5-12.9v-10.4l3.5 18.3 3.5 15.4 3 11.9 3 8.4 113.9 269.4 189.2 11.9-213-424.4 205.9-417.5"/>
</svg>
