<svg version="1.1" viewBox="0 0 512 512" xmlns="http://www.w3.org/2000/svg" xmlns:xlink="http://www.w3.org/1999/xlink">
 <defs>
  <linearGradient id="linearGradient4329" x1="-112.34" x2="-109.97" y1="572.45" y2="107.9" gradientTransform="matrix(1.0074 0 0 1.0074 261.63 527.41)" gradientUnits="userSpaceOnUse" xlink:href="#ButtonShadow-0-1-1-5-9-8"/>
  <linearGradient id="ButtonShadow-0-1-1-5-9-8" x1="45.448" x2="45.448" y1="92.54" y2="7.0165" gradientTransform="matrix(1.0059 0 0 .99417 100 0)" gradientUnits="userSpaceOnUse">
   <stop offset="0"/>
   <stop stop-opacity=".58824" offset="1"/>
  </linearGradient>
  <linearGradient id="linearGradient4331" x1="-112.34" x2="-109.97" y1="572.45" y2="107.9" gradientTransform="matrix(1.0318 0 0 1.0318 268.78 524.78)" gradientUnits="userSpaceOnUse" xlink:href="#ButtonShadow-0-1-1-5-9-8"/>
  <linearGradient id="linearGradient4333" x1="-112.34" x2="-109.97" y1="572.45" y2="107.9" gradientTransform="matrix(1.0149 0 0 1.0148 263.8 526.61)" gradientUnits="userSpaceOnUse" xlink:href="#ButtonShadow-0-1-1-5-9-8"/>
  <linearGradient id="linearGradient4335" x1="-112.34" x2="-109.97" y1="572.45" y2="107.9" gradientTransform="matrix(1.0233 0 0 1.0233 266.29 525.7)" gradientUnits="userSpaceOnUse" xlink:href="#ButtonShadow-0-1-1-5-9-8"/>
  <linearGradient id="linearGradient13404" x1="-112.34" x2="-109.97" y1="572.45" y2="107.9" gradientTransform="matrix(1.0403 0 0 1.0403 271.27 523.87)" gradientUnits="userSpaceOnUse" xlink:href="#ButtonShadow-0-1-1-5-9-8"/>
  <linearGradient id="linearGradient4341" x1="993.44" x2="988.79" y1="51.512" y2="363.74" gradientTransform="translate(-753.59 -30.143)" gradientUnits="userSpaceOnUse">
   <stop stop-color="#fff" offset="0"/>
   <stop stop-color="#fff" stop-opacity="0" offset="1"/>
  </linearGradient>
  <linearGradient id="linearGradient4343" x1="1764.6" x2="1763.7" y1="155.6" y2="-55.941" gradientTransform="translate(-1532.2 330.42)" gradientUnits="userSpaceOnUse">
   <stop offset="0"/>
   <stop stop-color="#fff" stop-opacity=".2" offset="1"/>
  </linearGradient>
  <linearGradient id="linearGradient14579" x1="272" x2="272" y1="288" y2="32" gradientTransform="translate(760.24 -4.2198)" gradientUnits="userSpaceOnUse">
   <stop stop-color="#2b72ea" offset="0"/>
   <stop stop-color="#508aec" offset="1"/>
  </linearGradient>
 </defs>
 <g transform="matrix(.99853 0 0 .99853 54.036 -615.11)">
  <path d="m60.99 1111.5 144.33-0.2064 147.53-0.2409c49.041-5.1221 87.225-45.726 88.537-95.85 9e-4 -0.035-9e-4 -0.069 0-0.1032 9e-4 -0.414-8e-4 -0.6473 0-1.0665 0.042-21.503 0.034-49.942 0.034-87.765v-152.51l-68.862-68.877-68.896-68.877-152.82 0.0688c-40.253 0.0173-69.341 0.0413-91.323 0.10316-50.89 2.7548-91.336 43.548-93.49 94.611-0.0987 30.63-0.10318 74.757-0.10318 143.02 0 68.269 5e-3 112.39 0.10312 143.02 2.1745 51.557 43.387 92.644 94.969 94.68z" color="#000000" fill="url(#linearGradient4329)" opacity=".25"/>
  <path d="m63.289 1123 147.82-0.2114 151.1-0.2467c50.227-5.246 89.334-46.832 90.678-98.168 9e-4 -0.035-9e-4 -0.07 0-0.1056 9e-4 -0.424-8e-4 -0.663 0-1.0924 0.043-22.023 0.035-51.15 0.035-89.888v-156.2l-70.528-70.543-70.563-70.543-156.52 0.0705c-41.226 0.0177-71.018 0.0423-93.532 0.10565-52.121 2.8214-93.545 44.601-95.751 96.9-0.10109 31.371-0.10567 76.565-0.10567 146.48 0 69.92 5e-3 115.11 0.10561 146.48 2.2271 52.804 44.436 94.885 97.266 96.97z" color="#000000" fill="url(#linearGradient4331)" opacity=".1"/>
  <path d="m61.69 1115 145.39-0.2079 148.61-0.2427c49.402-5.1598 87.867-46.063 89.189-96.556 9e-4 -0.035-9e-4 -0.069 0-0.1039 9e-4 -0.4171-8e-4 -0.6521 0-1.0744 0.042-21.661 0.034-50.31 0.034-88.411v-153.64l-69.369-69.384-69.404-69.384-153.95 0.0693c-40.549 0.0174-69.851 0.0416-91.995 0.10392-51.264 2.7751-92.009 43.868-94.178 95.308-0.0994 30.856-0.10394 75.308-0.10394 144.07 0 68.771 5e-3 113.21 0.10387 144.07 2.1905 51.937 43.706 93.326 95.668 95.377z" color="#000000" fill="url(#linearGradient4333)" opacity=".25"/>
  <path d="m62.49 1119 146.6-0.2097 149.85-0.2447c49.815-5.2028 88.601-46.447 89.934-97.362 9e-4 -0.035-9e-4 -0.07 0-0.1048 9e-4 -0.4205-8e-4 -0.6575 0-1.0833 0.043-21.842 0.034-50.73 0.034-89.149v-154.92l-69.948-69.964-69.983-69.964-155.23 0.0699c-40.888 0.0176-70.434 0.0419-92.764 0.10478-51.693 2.7983-92.777 44.235-94.965 96.104-0.10025 31.114-0.1048 75.936-0.1048 145.27 0 69.346 5e-3 114.16 0.10474 145.27 2.2088 52.37 44.071 94.105 96.467 96.174z" color="#000000" fill="url(#linearGradient4335)" opacity=".2"/>
  <path d="m64.089 1127 149.03-0.2131 152.34-0.2488c50.64-5.289 90.068-47.216 91.423-98.974 1e-3 -0.036-9e-4 -0.071 0-0.1065 1e-3 -0.4274-8e-4 -0.6684 0-1.1013 0.043-22.204 0.035-51.57 0.035-90.626v-157.49l-71.107-71.122-71.142-71.122-157.81 0.071c-41.565 0.0179-71.601 0.0427-94.3 0.10653-52.549 2.8446-94.314 44.967-96.538 97.696-0.10192 31.629-0.10654 77.194-0.10654 147.68 0 70.494 5e-3 116.05 0.10648 147.68 2.2454 53.238 44.801 95.664 98.065 97.767z" color="#000000" fill="url(#linearGradient13404)" opacity=".08"/>
 </g>
 <path d="m114.23 491.31 143.05-0.20461 146.22-0.2387c48.607-5.077 86.453-45.323 87.754-95.005 9e-4 -0.0342-9e-4 -0.0681 0-0.10224 8e-4 -0.41033-8e-4 -0.64159 0-1.0571 0.0419-21.313 0.034-49.502 0.034-86.991v-151.17l-68.253-68.27-68.287-68.27-151.47 0.0682c-39.897 0.0172-68.727 0.0409-90.515 0.10225-50.44 2.7305-90.529 43.164-92.663 93.777-0.0979 30.36-0.10227 74.098-0.10227 141.76 0 67.667 5e-3 111.4 0.10221 141.76 2.1553 51.102 43.003 91.827 94.129 93.845z" color="#bebebe" fill="url(#linearGradient14579)"/>
 <g transform="matrix(.99853 0 0 .99853 -604.6 -353.42)">
  <g transform="translate(-926.67 684.38)">
   <path transform="translate(1532.2 -330.42)" d="m355.25 20-151.69 0.0625c-39.955 0.0172-68.836 0.03235-90.656 0.09375-0.78928 0.04273-1.5909 0.09519-2.375 0.15625-3.9206 0.30529-7.7557 0.84594-11.531 1.5938-1.5102 0.29912-3.0159 0.63302-4.5 1-2.2261 0.55047-4.4312 1.1766-6.5938 1.875-20.904 6.7514-38.688 20.284-50.812 38.031-0.10833 0.15862-0.23632 0.30946-0.34375 0.46875-0.30646 0.4543-0.60724 0.91529-0.90625 1.375-1.618 2.4875-3.1081 5.0497-4.5 7.6875-2.4162 4.5791-4.5083 9.3984-6.1875 14.375-0.01359 0.04029-0.01771 0.08469-0.03125 0.125-0.48186 1.4342-0.92684 2.8803-1.3438 4.3438-0.20845 0.7317-0.40185 1.4488-0.59375 2.1875-0.02741 0.10561-0.06668 0.20675-0.09375 0.3125-0.16292 0.6357-0.31823 1.2968-0.46875 1.9375-0.17513 0.74544-0.34185 1.4668-0.5 2.2188-0.04199 0.19993-0.08422 0.39337-0.125 0.59375-0.11354 0.55683-0.20835 1.1272-0.3125 1.6875-0.14096 0.75834-0.28268 1.5168-0.40625 2.2812s-0.2378 1.5421-0.34375 2.3125c-0.21191 1.5408-0.39105 3.093-0.53125 4.6562-0.06917 0.77127-0.13609 1.5361-0.1875 2.3125-0.0027 0.0414 0.0027 0.0836 0 0.125-0.03075 0.47545-0.06972 0.96019-0.09375 1.4375-0.01419 0.28051-0.01939 0.56261-0.03125 0.84375-0.098 30.405-0.09375 74.21-0.09375 141.97 0 67.673-0.0032 111.41 0.09375 141.81 1.33e-4 0.0417-1.33e-4 0.11458 0 0.15625 0.0027 0.0629-0.0028 0.12467 0 0.1875 0.0075 0.16637 0.02289 0.33385 0.03125 0.5 0.06034 1.229 0.14535 2.4398 0.25 3.6562 0.02597 0.30189 0.06508 0.60517 0.09375 0.90625 0.04518 0.46981 0.07329 0.93843 0.125 1.4062 0.02399 0.21918 0.06833 0.43751 0.09375 0.65625 0.08359 0.71923 0.18235 1.4107 0.28125 2.125 0.09803 0.70307 0.1998 1.3956 0.3125 2.0938 0.0432 0.26966 0.07962 0.54359 0.125 0.8125 0.06179 0.36349 0.12176 0.73165 0.1875 1.0938 0.03935 0.21824 0.08422 0.43852 0.125 0.65625 0.08776 0.46552 0.187 0.94311 0.28125 1.4062 0.13511 0.66395 0.25792 1.3098 0.40625 1.9688 0.03076 0.13664 0.06243 0.26983 0.09375 0.40625 0.05764 0.25224 0.12794 0.49851 0.1875 0.75 0.12891 0.54185 0.26846 1.0867 0.40625 1.625 0.05292 0.20754 0.10202 0.418 0.15625 0.625 0.15158 0.57628 0.30708 1.1467 0.46875 1.7188 0.22012 0.77886 0.44888 1.573 0.6875 2.3438 0.71585 2.3123 1.4973 4.5777 2.375 6.8125 0.28069 0.71657 0.57813 1.4481 0.875 2.1562 9e-3 0.0214 0.02224 0.0411 0.03125 0.0625 0.57509 1.3648 1.1785 2.7303 1.8125 4.0625 0.04962 0.10427 0.10628 0.20843 0.15625 0.3125 0.27599 0.5757 0.55696 1.1494 0.84375 1.7188 0.06944 0.13761 0.14868 0.26901 0.21875 0.40625 1.4439 2.8279 3.0175 5.5903 4.7188 8.25 2.5519 3.9896 5.3834 7.7781 8.4688 11.344 17.909 20.697 44.355 33.777 73.969 33.906h2.625c-52.975-0.39979-95.5-43.177-95.5-96.25v-269.5c0-53.322 42.928-96.25 96.25-96.25h244l-10-10zm131.75 131.75v244c0 50.257-38.128 91.261-87.156 95.812h3.1875c30.126-2.8221 56.216-19.119 72.219-42.844 0.44099-0.65379 0.88696-1.3038 1.3125-1.9688s0.84018-1.3554 1.25-2.0312c1.2295-2.0275 2.3852-4.0978 3.4688-6.2188 0.36117-0.70697 0.71805-1.4082 1.0625-2.125s0.67253-1.461 1-2.1875c1.6023-3.5546 3.0096-7.2017 4.1875-10.969 0.0255-0.0819 0.0372-0.16801 0.0625-0.25 0.41115-1.3272 0.80023-2.6803 1.1562-4.0312 0.0573-0.21835 0.10044-0.4373 0.15625-0.65625 0.20151-0.78671 0.41125-1.5807 0.59375-2.375s0.33676-1.5734 0.5-2.375 0.32503-1.6288 0.46875-2.4375 0.2823-1.622 0.40625-2.4375c0.0398-0.26208 0.0872-0.51848 0.125-0.78125 0.079-0.55396 0.14894-1.0993 0.21875-1.6562 0.025-0.19753 0.0387-0.39585 0.0625-0.59375 0.0742-0.62299 0.15612-1.2484 0.21875-1.875 0.0136-0.1345 0.0182-0.27159 0.0312-0.40625 0.0671-0.70043 0.13504-1.389 0.1875-2.0938 5e-3 -0.0616-5e-3 -0.12589 0-0.1875 0.0474-0.65349 0.0903-1.3117 0.125-1.9688 6e-3 -0.11421 0.0255-0.22944 0.0312-0.34375 5.1e-4 -0.0103-5e-4 -0.021 0-0.0312 0.0387-0.76781 0.0726-1.54 0.0937-2.3125 9e-4 -0.0342-9e-4 -0.0596 0-0.0937 9e-5 -0.0483-4e-5 -0.081 0-0.125 8e-3 -0.31325-5e-3 -0.62352 0-0.9375 0.021-10.672 0.028-23.05 0.0312-37.469 3e-3 -14.419 0-30.884 0-49.656v-151.38l-5-5z" color="#000000" fill="url(#linearGradient4341)" opacity=".5"/>
   <path transform="translate(1532.2 -330.42)" d="m112.91 20.156c-0.78928 0.04273-1.5909 0.09519-2.375 0.15625-3.9206 0.30529-7.7557 0.84594-11.531 1.5938-1.5102 0.29912-3.0159 0.63302-4.5 1-2.2261 0.55047-4.4312 1.1766-6.5938 1.875s-4.2818 1.4718-6.375 2.3125c-0.69775 0.28023-1.4041 0.57938-2.0938 0.875-7.5859 3.2518-14.675 7.414-21.125 12.375-1.1728 0.902-2.3077 1.8282-3.4375 2.7812-5.0839 4.2887-9.725 9.0841-13.844 14.312-1.3729 1.7428-2.6832 3.5391-3.9375 5.375-0.10955 0.16044-0.23513 0.30763-0.34375 0.46875-0.30646 0.4543-0.60724 0.91529-0.90625 1.375-0.80898 1.2438-1.5905 2.5303-2.3438 3.8125-0.16687 0.2843-0.33592 0.55761-0.5 0.84375-0.20716 0.36085-0.39106 0.73001-0.59375 1.0938-0.1848 0.33189-0.38145 0.66574-0.5625 1-0.17065 0.31498-0.3327 0.62043-0.5 0.9375-0.34797 0.65946-0.69794 1.3317-1.0312 2-0.66662 1.3366-1.2995 2.6916-1.9062 4.0625-0.87986 1.988-1.7192 4.0069-2.4688 6.0625-0.02575 0.07061-0.03691 0.14807-0.0625 0.21875-0.25528 0.70525-0.51044 1.4122-0.75 2.125-0.0063 0.0187 0.0063 0.04379 0 0.0625-0.47828 1.425-0.92958 2.8587-1.3438 4.3125-0.01792 0.06293-0.0447 0.12452-0.0625 0.1875-0.189 0.66856-0.35606 1.3256-0.53125 2-0.02999 0.11539-0.06417 0.22819-0.09375 0.34375-0.16026 0.62611-0.32052 1.2753-0.46875 1.9062-0.14068 0.5988-0.27651 1.1782-0.40625 1.7812-0.05606 0.26059-0.10224 0.51988-0.15625 0.78125-0.01964 0.09505-0.04314 0.1861-0.0625 0.28125-0.11135 0.54694-0.21022 1.106-0.3125 1.6562-0.04812 0.25885-0.11015 0.52168-0.15625 0.78125-0.0886 0.49905-0.16891 0.99832-0.25 1.5-0.05057 0.31267-0.10861 0.62383-0.15625 0.9375-0.06911 0.45519-0.12461 0.91774-0.1875 1.375-0.10595 0.7704-0.19312 1.5364-0.28125 2.3125-0.08813 0.77612-0.1799 1.5621-0.25 2.3438-0.06483 0.72436-0.13833 1.4586-0.1875 2.1875-0.0098 0.14554-0.02206 0.29179-0.03125 0.4375-0.04238 0.67171-0.0648 1.3559-0.09375 2.0312-8.89e-4 0.0208 8.77e-4 0.0417 0 0.0625-2.7e-5 8e-3 2.7e-5 0.0229 0 0.0312-0.097922 30.404-0.09375 74.198-0.09375 141.94 0 67.692-0.0033 111.44 0.09375 141.84 1.07e-4 0.0334-1.07e-4 0.0917 0 0.125 0.0022 0.0524-0.0023 0.10389 0 0.15625 0.0084 0.18714 0.02184 0.37564 0.03125 0.5625 0.06227 1.2602 0.14115 2.503 0.25 3.75 0.01815 0.20793 0.04307 0.41745 0.0625 0.625 0.06314 0.66992 0.14235 1.3342 0.21875 2 0.0023 0.0206-0.0024 0.0419 0 0.0625 0.08856 0.77298 0.20626 1.514 0.3125 2.2812 0.10767 0.77762 0.21814 1.5722 0.34375 2.3438 0.11071 0.67613 0.21942 1.3599 0.34375 2.0312 0.01731 0.0939 0.04493 0.18743 0.0625 0.28125 0.08949 0.47548 0.18499 0.96451 0.28125 1.4375 0.11575 0.56872 0.21829 1.1225 0.34375 1.6875 0.05136 0.2313 0.10328 0.45683 0.15625 0.6875 0.05544 0.24229 0.13028 0.47716 0.1875 0.71875 0.16871 0.71001 0.34732 1.4212 0.53125 2.125 0.01079 0.0414 0.02041 0.0836 0.03125 0.125 0.15397 0.58602 0.30434 1.1684 0.46875 1.75 0.04405 0.15622 0.08021 0.31285 0.125 0.46875 0.17938 0.62283 0.37126 1.2574 0.5625 1.875 0.03482 0.11268 0.05854 0.23125 0.09375 0.34375 0.20557 0.65538 0.43746 1.2882 0.65625 1.9375 0.25685 0.76225 0.50641 1.5276 0.78125 2.2812 0.01464 0.0402 0.01656 0.0848 0.03125 0.125 0.2611 0.71305 0.53551 1.4199 0.8125 2.125 0.27734 0.70739 0.58189 1.4258 0.875 2.125 0.07796 0.1855 0.13969 0.37759 0.21875 0.5625 0.24755 0.57897 0.52299 1.1456 0.78125 1.7188 0.27616 0.61378 0.55546 1.2368 0.84375 1.8438 0.05022 0.10551 0.10567 0.2072 0.15625 0.3125 0.29626 0.61798 0.59755 1.2331 0.90625 1.8438 0.1048 0.20699 0.20629 0.41886 0.3125 0.625 0.31001 0.60166 0.64677 1.187 0.96875 1.7812 0.37743 0.69663 0.7626 1.4075 1.1562 2.0938 0.25197 0.43977 0.49146 0.87707 0.75 1.3125 0.14443 0.24294 0.29104 0.47718 0.4375 0.71875 0.4096 0.6756 0.82469 1.3353 1.25 2 0.85062 1.3294 1.7443 2.6532 2.6562 3.9375 0.19945 0.28119 0.39142 0.56478 0.59375 0.84375 0.25953 0.35745 0.51704 0.70874 0.78125 1.0625 0.47091 0.63051 0.9519 1.2564 1.4375 1.875 0.9712 1.2372 1.9715 2.437 3 3.625 0.51423 0.59403 1.0343 1.1999 1.5625 1.7812 1.0563 1.1627 2.1395 2.2957 3.25 3.4062 1.1052 1.1052 2.2181 2.1985 3.375 3.25 0.0056 5e-3 0.02567-5e-3 0.03125 0 1.7441 1.5845 3.5504 3.1057 5.4062 4.5625 16.595 13.027 37.533 20.807 60.344 20.906 0.14694 6.4e-4 0.2904 0 0.4375 0l139.31-0.21875 145.41-0.21875c30.126-2.8202 56.216-19.128 72.219-42.844 0.44099-0.65356 0.88696-1.304 1.3125-1.9688 0.29883-0.46679 0.5839-0.93407 0.875-1.4062 0.12249-0.19908 0.25389-0.39372 0.375-0.59375 0.0486-0.0801 0.0766-0.16976 0.125-0.25 0.35959-0.59664 0.71533-1.1764 1.0625-1.7812 0.78772-1.3725 1.5589-2.774 2.2812-4.1875 0.36117-0.70677 0.71805-1.4396 1.0625-2.1562s0.67253-1.43 1-2.1562c0.9824-2.1788 1.8937-4.3953 2.7188-6.6562 0.0158-0.0433 0.0468-0.0817 0.0625-0.125 0.25824-0.71082 0.4765-1.4378 0.71875-2.1562 0.23268-0.69009 0.46976-1.3655 0.6875-2.0625 0.0226-0.0724 0.0401-0.14628 0.0625-0.21875 0.41412-1.3366 0.79806-2.7018 1.1562-4.0625 0.0547-0.20856 0.10288-0.41589 0.15625-0.625 0.20151-0.78658 0.41125-1.5808 0.59375-2.375s0.33676-1.5735 0.5-2.375 0.32503-1.6289 0.46875-2.4375 0.2823-1.622 0.40625-2.4375c0.0414-0.2723 0.0858-0.53945 0.125-0.8125 0.0775-0.54368 0.15007-1.0784 0.21875-1.625 0.0263-0.20779 0.0375-0.4168 0.0625-0.625 0.073-0.61274 0.15696-1.2275 0.21875-1.8438 0.0146-0.14477 0.0173-0.29255 0.0312-0.4375 0.0731-0.7627 0.1318-1.5134 0.1875-2.2812s0.11812-1.5398 0.15625-2.3125c0.0392-0.77814 0.0726-1.5608 0.0937-2.3438 9e-4 -0.0342-9e-4 -0.0596 0-0.0937 7e-5 -0.0363-4e-5 -0.06 0-0.0937 8e-3 -0.32368-5e-3 -0.64428 0-0.96875 0.021-10.672 0.028-23.05 0.0312-37.469 3e-3 -14.419 0-30.884 0-49.656v-151.38l-5-5v234c1.5e-4 53.322-42.927 96.25-96.25 96.25h-269.5c-53.322 0-96.25-42.928-96.25-96.25v-269.5c0-51.519 40.071-93.324 90.875-96.094-0.86176 0.0023-2.1282-0.0024-2.9688 0z" color="#000000" fill="url(#linearGradient4343)" opacity=".2"/>
  </g>
 </g>
 <path d="m106 169.36v30h300v-30h-150zm0 66.429v30h300v-30h-150zm0 66.429v30h300v-30h-150zm0 66.429v30h150v-30z" color="#000000" fill="#fff"/>
 <path d="m354.75 20v102.41c0 9.7647 4.1161 18.56 10.688 24.781l40.562 40.562v11.594h-300c0 0.0134 37.062 36.438 37.062 36.438h262.94v30h-300l37.062 36.438h262.94v30h-300l37.062 36.438h112.94v30h-150l93.781 93.344h193.88c54.477 0 98.344-43.867 98.344-98.344v-138.25l-0.6875-0.6875v-98.156l-136.56-136.56z" fill-opacity=".23529"/>
 <path d="m354.76 20v102.4c0 18.854 15.281 34.135 34.135 34.135h102.4l-136.54-136.54" color="#000000" fill="#6da3fb"/>
</svg>
