<svg version="1.1" viewBox="8 -4 112 136" xmlns="http://www.w3.org/2000/svg" xmlns:xlink="http://www.w3.org/1999/xlink">
 <linearGradient id="a" x1="108" x2="20.001" y1="122" y2="6" gradientUnits="userSpaceOnUse">
  <stop stop-color="#18a303" offset="0"/>
  <stop stop-color="#106802" offset="1"/>
 </linearGradient>
 <linearGradient id="b" x1="108.01" x2="19.323" y1="120.78" y2="6.7153" gradientUnits="userSpaceOnUse">
  <stop stop-color="#6e6e6e" offset="0"/>
  <stop stop-color="#b0b0b0" offset="1"/>
 </linearGradient>
 <linearGradient id="c" x1="-17" x2="144" y1="-1194.6" y2="-1194.6" gradientTransform="matrix(.14049 0 0 .99998 67.08 1284.6)" gradientUnits="userSpaceOnUse">
  <stop stop-color="#fff" stop-opacity="0" offset="0"/>
  <stop stop-color="#fff" offset=".49306"/>
  <stop stop-color="#fff" stop-opacity="0" offset="1"/>
 </linearGradient>
 <linearGradient id="d" x1="107" x2="19.581" y1="120.92" y2="8" gradientUnits="userSpaceOnUse" xlink:href="#e"/>
 <linearGradient id="e">
  <stop stop-color="#a33e03" offset="0"/>
  <stop stop-color="#d36118" offset="1"/>
 </linearGradient>
 <linearGradient id="f" x1="108" x2="20.001" y1="122" y2="6" gradientUnits="userSpaceOnUse">
  <stop stop-color="#e6e6e6" offset="0"/>
  <stop stop-color="#fff" offset="1"/>
 </linearGradient>
 <linearGradient id="g" x1="122.75" x2="111.75" y1="991.62" y2="977.12" gradientTransform="matrix(7.9997 0 0 7.9978 -873.97 -7808.8)" gradientUnits="userSpaceOnUse" xlink:href="#e"/>
 <path d="m17.253 0c-0.25037 0-0.50072 0.011156-0.75 0.035156-3.6671 0.6998-4.5658 2.2662-4.5 5.998v115.97c4e-4 4.1875 1.8115 5.9976 6 5.998h91.998c4.1885-4e-4 5.9976-1.8106 5.998-5.998v-71.818c0.048-2.1119-0.78004-4.2302-2.25-5.748l-42.16-42.15c-1.5182-1.4692-3.6376-2.2989-5.75-2.25h-47.836c-0.24919-0.024-0.49962-0.035156-0.75-0.035156zm70.01 0.013672c-0.20997 0-0.41948 0.016828-0.62695 0.048828-2.6625 0.8528-3.5584 4.9045-1.5059 6.8105l24.096 24.221c2.2259 2.1217 6.6581 0.30621 6.7754-2.7754v-24.221c-2.4e-4 -2.1137-1.913-4.0349-4.0156-4.0352h-24.094c-0.20758-0.032-0.41894-0.048828-0.6289-0.048828z" fill="url(#g)"/>
 <path d="m18.001 6v116h92v-72l-44-44z" fill="url(#f)"/>
 <path d="m60.001 98.998v2.0801l-12 7.9199h5.8789l8.8555-7h0.51562l8.75 7h6l-12-8v-2z" fill="#646464"/>
 <path d="m32.001 55v44h62v-44zm3 2h56c0.554 0 1 0.446 1 1v38c0 0.554-0.446 1-1 1h-56c-0.554 0-1-0.446-1-1v-38c0-0.554 0.446-1 1-1zm2 2.998v4h52v-4zm10 7v4h32v-4zm-3 8v4h15v-4zm-5 0.0039c-1.1046-1e-6 -2 0.89543-2 2s0.89543 2 2 2c1.1046 1e-6 2-0.89543 2-2s-0.89543-2-2-2zm5 6.9961v4h15v-4zm-5 0.0039c-1.1046-1e-6 -2 0.89543-2 2s0.89543 2 2 2c1.1046 1e-6 2-0.89543 2-2s-0.89543-2-2-2zm5 6.9961v4h15v-4zm-5 0.0039c-1.1046-1e-6 -2 0.89543-2 2s0.89543 2 2 2c1.1046 1e-6 2-0.89543 2-2s-0.89543-2-2-2z" fill="url(#d)"/>
 <path d="m64.691 89.999h22.619v1h-22.619z" fill="url(#c)"/>
 <path d="m63.001 74.998v18h26v-18zm2 2h22v14h-22zm1 2v1h20v-1zm0 3v1h20v-1zm0 3v1h20v-1zm0 3v1h20v-1z" fill="url(#b)"/>
 <path d="m84.472 77.984a1.5002 1.5002 0 0 0-1.0312 0.45312l-6.4394 6.4395-2.9394-2.9395a1.5002 1.5002 0 0 0-2.1211 0l-5.5 5.5a1.5002 1.5002 0 1 0 2.1211 2.1211l4.4394-4.4395 2.9394 2.9395a1.5002 1.5002 0 0 0 2.1211 0l7.5-7.5a1.5002 1.5002 0 0 0-1.0898-2.5742z" fill="url(#a)"/>
</svg>
