<svg version="1.1" viewBox="8 -4 112 136" xmlns="http://www.w3.org/2000/svg" xmlns:xlink="http://www.w3.org/1999/xlink">
 <linearGradient id="a">
  <stop stop-color="#666" offset="0"/>
  <stop stop-color="#333" offset="1"/>
 </linearGradient>
 <linearGradient id="b">
  <stop stop-color="#0369a3" offset="0"/>
  <stop stop-color="#1c99e0" offset="1"/>
 </linearGradient>
 <linearGradient id="c" x1="445.7" x2="441.39" y1="1103.6" y2="1099.8" gradientTransform="matrix(0 .79108 -1.28 0 1499.6 -282.01)" gradientUnits="userSpaceOnUse">
  <stop stop-color="#e9b913" offset="0"/>
  <stop stop-color="#ff0" offset="1"/>
 </linearGradient>
 <linearGradient id="d" x2="0" y1="1173" y2="1178" gradientTransform="matrix(4.1998 0 0 3.9111 -1392.9 -4517.1)" gradientUnits="userSpaceOnUse">
  <stop stop-color="#0369a3" offset="0"/>
  <stop stop-color="#023f62" offset="1"/>
 </linearGradient>
 <linearGradient id="e" x2="0" y1="-629.67" y2="-635.55" gradientTransform="matrix(1.2 0 0 1.2222 -281.19 858.55)" gradientUnits="userSpaceOnUse">
  <stop stop-color="#18a303" offset="0"/>
  <stop stop-color="#106802" offset="1"/>
 </linearGradient>
 <linearGradient id="f" x2="0" y1="1173" y2="1178" gradientTransform="matrix(4.1998 0 0 3.9111 -1392.9 -4521.9)" gradientUnits="userSpaceOnUse" xlink:href="#a"/>
 <linearGradient id="g" x2="0" y1="1173" y2="1178" gradientTransform="matrix(-4.1998 0 0 3.9111 1540.9 -4523.2)" gradientUnits="userSpaceOnUse" xlink:href="#a"/>
 <linearGradient id="h" x2="0" y1="-581.64" y2="-578.64" gradientTransform="matrix(4.4999 0 0 3.6666 -942.98 2199.7)" gradientUnits="userSpaceOnUse">
  <stop stop-color="#63bbee" offset="0"/>
  <stop stop-color="#aadcf7" offset="1"/>
 </linearGradient>
 <linearGradient id="i" x1="108" x2="20.001" y1="130" y2="14" gradientUnits="userSpaceOnUse" xlink:href="#b"/>
 <linearGradient id="j" x1="108" x2="20.001" y1="122" y2="6" gradientUnits="userSpaceOnUse">
  <stop stop-color="#e6e6e6" offset="0"/>
  <stop stop-color="#fff" offset="1"/>
 </linearGradient>
 <linearGradient id="k" x1="122.75" x2="111.75" y1="991.62" y2="977.12" gradientTransform="matrix(7.9997 0 0 7.9978 -873.97 -7808.8)" gradientUnits="userSpaceOnUse" xlink:href="#b"/>
 <path d="m17.253 0c-0.25037 0-0.50072 0.011156-0.75 0.035156-3.6671 0.6998-4.5658 2.2662-4.5 5.998v115.97c4e-4 4.1875 1.8115 5.9976 6 5.998h91.998c4.1885-4e-4 5.9976-1.8106 5.998-5.998v-71.818c0.048-2.1119-0.78004-4.2302-2.25-5.748l-42.16-42.15c-1.5182-1.4692-3.6376-2.2989-5.75-2.25h-47.836c-0.24919-0.024-0.49962-0.035156-0.75-0.035156zm70.01 0.013672c-0.20997 0-0.41948 0.016828-0.62695 0.048828-2.6625 0.8528-3.5584 4.9045-1.5059 6.8105l24.096 24.221c2.2259 2.1217 6.6581 0.30621 6.7754-2.7754v-24.221c-2.4e-4 -2.1137-1.913-4.0349-4.0156-4.0352h-24.094c-0.20758-0.032-0.41894-0.048828-0.6289-0.048828z" fill="url(#k)"/>
 <path d="m18.001 6v116h92v-72l-44-44z" fill="url(#j)"/>
 <path d="m31.001 55.996v4h18v-4zm21.998 2e-3v28h42v-28zm3.002 3.0019h36v22h-36zm-25 4.9961v4h18v-4zm0 8v4h18v-4zm0 8v4h18v-4zm0 8v4h64v-4zm0 8v4h64v-4zm0 8v4h42v-4z" fill="url(#i)"/>
 <path d="m56.001 58.999h35.999v22h-35.999z" fill="url(#h)"/>
 <path d="m82.401 65.11c2.4 1.2223 6.5708 5.4785 9.5985 8.5556v3.6666h-27.599c4.8006-6.111 12-9.7777 18-12.222z" fill="url(#g)"/>
 <path d="m73.588 72.214 0.20971-1.7259 3.1514-1.3732 1.7723-1.6867 3.1164-1.287-0.81326 2.0851-1.2149 2.1676-0.72316 2.3557-0.50012 1.3573z" fill="#333"/>
 <path d="m74.601 70.61c-3.592-3.0353-5.3999-5.5-7.7998-9.1666-0.70179 0.2159-0.67498 0.1338-1.2 0 0 0-3.2106 4.8582-4.7999 7.3333-1.5892 2.4752-4.8006 6.1111-4.8006 6.1111v2.4444h27.599s-6.5934-4.8509-8.9985-6.7221z" fill="url(#f)"/>
 <path d="m92.001 74.888h-1.5469l-6.8529 1.2222s-6.772-1.8333-7.7907-1.8333c-1.0009 0-4.2091 0.6111-4.8094 0.6111-0.42074 0-2.9996-1.2222-3.6094-1.2222-1.0062 0-2.1657 1.2986-5.1656 1.8333 0 0-0.8619-1.9478-1.4244-1.8333-3.5999 1.4132-4.8006 1.2222-4.8006 1.2222v6.1111h35.999l1e-3 -6.1111h1.4e-4z" fill="url(#e)"/>
 <path d="m56.001 76.11-7e-4 4.8889h31.2l1.2-1.2223-1.2-1.2221-2.4-1.2223-5.9999-1.2221-5.9999-0.6112-5.3999 0.6112h-11.4z" fill="url(#d)"/>
 <path d="m58.401 73.665 1.7097-2.7954 2.0264-2.4427 1.5473-2.8707 1.9164-2.8912-1.3007 3.6512-0.95243 3.0079-0.46065 1.8973-0.85958 2.0216c-0.34603-0.2571-0.78349-0.2666-1.178-0.397l-1.1266 0.4498z" fill="#333"/>
 <path d="m75.201 73.665-1.7472-2.6968-3.0984-3.4415-2.5635-3.4328-0.99079-1.4289 1.0738 3.7096 1.1777 2.2247 1.0447 3.3983 0.30366 1.6674 1.0786 0.3681 1.6488-0.389c0.69217-0.07 1.3844 0.013 2.0725 0.021z" fill="#808080"/>
 <path d="m62.803405 73.7194 1.29015-3.3187.62925-3.4258.91011-2.115.56817-2.1946.7887 2.2581.22406 2.1565.95403 1.9211.94577 2.2071.1768 1.5591-1.58862.4542-1.50905-.5992-1.66818 1.1023h-1.72119v-.01z" fill="#666"/>
 <path d="m78.27 74.279-2.1019-1.5431-1.3425-1.0907 1.3038 2.0694z" fill="#808080"/>
 <path d="m80.030725 72.807.74175-2.4329.91009-2.115.56818-2.1944.7887 2.2581 1.01154 1.9273.72905 1.9211-.10416 2.0544 1.00178 1.0243-2.0623-.1136-4.16225-.8773.57766-1.4523z" fill="#666"/>
 <path d="m91.513 74.162-1.4097-0.8635-1.9734-2.7541-2.901-2.5543-2.2658-1.9252 0.43635 1.6088 2.0027 3.2177 0.21973 2.9019 1.2036 0.9416 2.6999-0.5347 1.9875-0.038z" fill="#808080"/>
 <path d="m57.201 77.332-1.2 3.6667h29.999v-1.2223l-1.2-1.2221-5.9999-1.2223-5.9999-0.611-5.9999 0.611-6.4938 0.1823z" fill="#0369a3"/>
 <path d="m69.201 79.776 1.2-1.2221h4.7999l3.5999 1.2221 1.2 1.2223h-2.4z" fill="#1c99e0" opacity=".5"/>
 <path d="m92.001 65.003c-3.3137 0-6-2.6863-6-6h6z" fill="url(#c)" opacity=".74"/>
</svg>
