<svg version="1.1" viewBox="-3 -3 94 92" xmlns="http://www.w3.org/2000/svg">
 <g transform="translate(-21.016)">
  <path d="m67.02 0h5.98v8c10.7 0.06 21.39-0.11 32.08 0.06 2.28-0.23 4.07 1.54 3.86 3.82 0.17 19.7-0.04 39.41 0.1 59.11-0.1 2.02 0.2 4.26-0.97 6.05-1.46 1.04-3.35 0.91-5.05 0.99-10.01-0.05-20.01-0.03-30.02-0.03v8h-6.25c-15.22-2.78-30.48-5.33-45.73-8-0.01-23.33 0-46.66 0-69.98 15.33-2.68 30.67-5.29 46-8.02z" fill="#2a5699"/>
  <path d="m73 11h33v64h-33v-8h26v-4h-26v-5h26v-4h-26v-5h26v-4h-26v-5h26v-4h-26v-5h26v-4h-26v-5h26v-4h-26v-7z" fill="#fff"/>
  <path d="m41.68 28.67c1.9-0.11 3.8-0.19 5.7-0.29 1.33 6.75 2.69 13.49 4.13 20.21 1.13-6.94 2.38-13.86 3.59-20.79 2-0.07 4-0.18 5.99-0.3-2.26 9.69-4.24 19.46-6.71 29.09-1.67 0.87-4.17-0.04-6.15 0.1-1.33-6.62-2.88-13.2-4.07-19.85-1.17 6.46-2.69 12.86-4.03 19.28-1.92-0.1-3.85-0.22-5.78-0.35-1.66-8.8-3.61-17.54-5.16-26.36 1.71-0.08 3.43-0.15 5.14-0.21 1.03 6.37 2.2 12.71 3.1 19.09 1.41-6.54 2.85-13.08 4.25-19.62z" fill="#fff"/>
 </g>
</svg>
